PathFileType	4	(X/Y/Z)	Patient4_TMGait_0pt4_02_right_44.trc.trc
DataRate	CameraRate	NumFrames	NumMarkers	Units	OrigDataRate	OrigDataStartFrame	OrigNumFrames
74.468085106383	74.468085106383	5	33	mm	74.468085106383	36	       141
Frame#	Time	Sacral			L.Shoulder			Chest			R.Shoulder			Neck			R.ASIS			L.ASIS			R.Thigh.Superior			R.Thigh.Lateral			R.Thigh.Inferior			R.Patella			L.Thigh.Superior			L.Thigh.Lateral			L.Thigh.Inferior			L.Patella			L.Shank.Superior			L.Shank.Lateral			L.Shank.Inferior			R.Shank.Superior			R.Shank.Lateral			R.Shank.Inferior			R.Heel			R.Midfoot.Superior			R.Midfoot.Lateral			R.Toe			L.Heel			L.Midfoot.Lateral			L.Midfoot.Superior			L.Toe			L.Elbow			L.Wrist			R.Elbow			R.Wrist			
		X1	Y1	Z1	X2	Y2	Z2	X3	Y3	Z3	X4	Y4	Z4	X5	Y5	Z5	X6	Y6	Z6	X7	Y7	Z7	X8	Y8	Z8	X9	Y9	Z9	X10	Y10	Z10	X11	Y11	Z11	X12	Y12	Z12	X13	Y13	Z13	X14	Y14	Z14	X15	Y15	Z15	X16	Y16	Z16	X17	Y17	Z17	X18	Y18	Z18	X19	Y19	Z19	X20	Y20	Z20	X21	Y21	Z21	X22	Y22	Z22	X23	Y23	Z23	X24	Y24	Z24	X25	Y25	Z25	X26	Y26	Z26	X27	Y27	Z27	X28	Y28	Z28	X29	Y29	Z29	X30	Y30	Z30	X31	Y31	Z31	X32	Y32	Z32	X33	Y33	Z33	

36	58.450000000000	849.724241072844	1001.852208518031	520.258786692391	1021.193413843946	1433.065561765807	337.221569161666	1119.073426813633	1370.164339834697	503.626831406266	1025.394691523689	1440.369430991416	673.725421285085	994.714019294098	1496.498097946346	494.340318229411	1080.652785081397	944.515524811967	641.512299336468	1069.044979755196	965.725689762310	365.886460989137	1135.497345750152	747.733371381459	608.375141509619	1064.163712876691	634.236215789666	672.610642462225	1143.034877378581	586.875498160121	590.282295727081	1149.951892286389	499.183700087969	598.117183911833	1095.256150349319	739.421672142946	384.522613419670	995.508481125923	633.259479519041	316.738041127306	1076.098024927021	543.328473056489	369.919982550532	1066.287497551880	463.321677120636	366.454913926407	1007.583560778683	403.690265273306	360.674028544010	875.561949389835	337.795980463137	314.289382261908	884.323106446652	208.326821547857	370.533431633975	1125.059285164875	409.198581958900	608.863679323053	1059.167377775511	304.402027358622	674.213226627067	1103.352086690665	209.364539052696	613.104473276743	976.396828284199	43.275694191960	587.985991766492	1145.644838177100	97.656601188732	622.968448851923	1059.397184360800	37.105477370097	663.340141811978	1267.161959849126	47.679358447865	652.720539021997	711.963846188249	101.495827392488	412.864554871672	778.029853386784	69.808764518612	333.559004397396	875.859222619420	107.845858637478	353.185353991478	980.642430792625	35.669251482612	328.666135846577	1039.207891787126	1086.553338095984	206.103070076241	1236.774901229404	912.945285457554	200.198303413596	966.620231278503	1097.643060974009	794.327713270717	1077.861574381115	861.007512700047	789.656304391044	
37	58.463428571429	850.266975734135	1002.017170107806	524.801658104559	1019.660854966339	1433.267076658796	340.602507090732	1119.281416040993	1370.604574895720	506.052319102043	1027.309604602123	1440.746930031384	677.014318213603	994.663799147688	1496.724641413918	497.874269577940	1082.077250756196	944.648941443432	644.109367669105	1068.045124650855	966.044168386178	368.876625381978	1135.166778490971	747.068815149580	611.610249637340	1062.495089192036	634.105437779547	675.241121312846	1141.189863340567	586.303542702228	593.067811121640	1147.344481969370	498.536958442268	600.463473253216	1100.350800300355	741.702578757204	387.212134707293	1004.513980706722	633.099462788314	318.270522144917	1087.990381333846	544.750889733213	371.120229757939	1079.104656588585	463.416996804580	366.655135290394	1018.111314804855	403.986599525931	361.053132387295	883.687462133629	343.006193830211	314.872443418214	888.308407865469	213.185371720250	370.343745794352	1121.956308698613	408.668708258842	610.712984010172	1055.500534102230	303.965305619538	675.515354259886	1099.023119371442	208.983473862849	613.933691188608	971.133286392455	43.288056406418	588.151836705911	1140.373429763447	97.453614229369	623.107655673463	1054.120544339480	37.043229567925	663.515652839483	1261.965623055588	47.310521764192	652.938461948439	711.908501102931	114.664440544790	412.344113766653	776.224121417765	79.018538822808	333.272406563134	875.936036815204	111.752712869539	352.667187394770	975.668953266956	34.729519044003	328.829062260495	1034.274330696348	1085.709591436344	211.432297571354	1221.052432300761	900.314683929951	202.914436290098	975.503950989941	1097.516908776030	800.119661123839	1098.970459032844	867.402191777354	792.968305775446	
38	58.476857142857	850.541696746435	1002.076094919443	529.258150479713	1018.024590315278	1433.274129749312	343.849756472621	1119.457797304040	1370.797443093248	508.268351992810	1029.360927610236	1440.938687924851	680.162645722423	994.659080394629	1496.799551203040	501.273164781270	1083.233231259605	944.621840612199	646.528000295822	1066.654739172033	966.066054227668	371.722416655765	1134.612603357043	746.355530427616	614.776874544913	1060.698916153137	633.913923059437	677.834186911711	1139.211176361377	585.715788944110	595.807279896536	1144.625376847567	497.875299065666	602.827069130850	1105.284935896053	744.108608481244	389.757915740985	1013.771723734918	633.141082071227	319.672967918095	1100.029438074222	546.601400853706	372.365796038607	1092.253497989189	464.027423922962	367.101243787315	1029.183706794430	404.639945770777	361.585974559994	892.618279450520	348.530203579795	315.415346129242	893.019854664007	218.555003967171	370.344275985275	1118.765593757763	408.106761650908	612.558294545399	1051.741193931923	303.503926064774	676.828762109460	1094.622305427102	208.577602383998	614.767920013625	965.776903972926	43.305265382030	588.314576822231	1135.036637320310	97.191032570884	623.248888841581	1048.757649535334	36.967380078545	663.688666473137	1256.695152171408	46.856752598757	653.158064992747	712.809113280840	128.646843904418	411.918441085540	775.267046562542	89.224145136604	333.038726803222	876.698945083343	116.395361147739	352.381203307950	971.168153062249	33.818366037143	329.019967428319	1029.163769418925	1084.690098871557	216.714382937402	1204.304161610279	888.169433699881	205.789952579681	984.686800612780	1097.458833785243	805.919685081535	1120.360275536593	874.781921093338	795.938010757687	
39	58.490285714286	850.554604915773	1002.050838006281	533.585239646543	1016.319453214978	1433.120938034394	346.933447623574	1119.600331688364	1370.762035958712	510.260859856050	1031.513753601981	1440.963817503136	683.139185712113	994.707573322587	1496.753713478272	504.501150115391	1084.101916437644	944.463054321008	648.773268824579	1064.962836135711	965.844422834269	374.392641674493	1133.877466768727	745.644643599710	617.775622097079	1058.889010617183	633.684518384045	680.340947694934	1137.176103965920	585.135824725147	598.411411402782	1141.874339791321	497.209479656341	605.131294364798	1109.938623157103	746.676945500795	392.150233905330	1023.018525276502	633.478948260276	320.961510822990	1111.924327794969	548.949023038753	373.615944518667	1105.455696648904	465.231232831161	367.740511458284	1040.560399852341	405.721219842258	362.239245690690	902.129177158551	354.287837410851	315.935280790286	898.392950725796	224.320159758833	370.529710400963	1115.558678308833	407.526050476130	614.342881294617	1047.966268077745	303.041865885009	678.123585143262	1090.196705619404	208.158892740310	615.576806012087	960.357256624719	43.327820733932	588.484268179516	1129.670098005386	96.909630912178	623.410713834668	1043.340428241980	36.890333964593	663.864966802537	1251.374954447480	46.359698392601	653.380511776626	714.727598459115	142.937085618892	411.628807912754	775.310536815942	100.069225695283	332.878584536637	878.238835958378	121.681925150512	352.316873700160	967.457751287408	33.052773763297	329.194968345217	1023.795518601196	1083.523796617969	221.926393617573	1186.615571606942	876.704207700470	208.845480087045	994.189224423669	1097.476913387739	811.637327076045	1141.882643506267	883.132212485745	798.521684040088	
40	58.503714285714	850.328397188414	1001.979461163449	537.751549257735	1014.581725528822	1432.859620442262	349.831340806773	1119.706072290438	1370.542507121910	512.026806803744	1033.726186504898	1440.863265265880	685.917701239325	994.809983790402	1496.632344387433	507.529142419065	1084.680570054673	944.211954044091	650.856746108850	1063.059629712152	965.462818221797	376.873366579572	1132.995465122720	744.973663111061	620.530825343160	1057.127305631060	633.436926895726	682.715007521816	1135.125593090455	584.577965506158	600.808781598265	1139.133657913337	496.549488897700	607.300757638486	1114.209509730286	749.447567328543	394.393487745406	1031.988176805344	634.195772460650	322.151803338962	1123.404723062002	551.842525948559	374.811598681781	1118.441172659064	467.084316679653	368.477911679878	1052.002786671965	407.286592484302	362.946950520096	911.982447836460	360.164487023474	316.444061357234	904.387060210853	230.310124776655	370.864764827587	1112.371657119413	406.942941955631	616.013604933288	1044.218252075718	302.600829040641	679.365275037545	1085.774313556986	207.742273720055	616.332084362098	954.903258199577	43.355781950527	588.664811222671	1124.304451307595	96.647552862937	623.608297993360	1037.897487648667	36.822144889817	664.046270673715	1246.026275685744	45.859024750592	653.604823779873	717.731621276348	156.911501668777	411.507814096598	776.524306006706	111.073216507944	332.802340662308	880.688758444997	127.429889634136	352.430715313814	964.933968297174	32.569012616872	329.289558889401	1018.086738545861	1082.268101472433	227.045998825570	1168.100413873256	866.100779087428	212.100650166036	1004.023710623335	1097.600732768649	817.178923725063	1163.388414890157	892.436377568314	800.674220235243	
